#!OML:ASF F:\VICON\USERDATA\INSTALL\rory3\rory3.ASF
:FULLY-SPECIFIED
:DEGREES
91
root 0.906606 17.866 -15.8722 6.28923 -3.7143 0.491544
lowerback 6.17258 0.0581058 -1.7063
upperback -0.092334 0.0325593 2.18141
thorax -3.56152 0.0654883 3.21444
lowerneck -16.0546 -3.5384 -9.92992
upperneck 29.15 -3.34999 3.81792
head 12.6068 -2.09742 2.64158
rclavicle -1.49089e-015 -5.56597e-015
rhumerus -33.5054 -10.547 -77.9377
rradius 33.4383
rwrist 3.17558
rhand -11.8737 16.6666
rfingers 7.12502
rthumb 14.1788 -12.8295
lclavicle -1.49089e-015 -5.56597e-015
lhumerus -32.9573 9.77482 85.5061
lradius 31.447
lwrist -2.5436
lhand -17.6564 26.6831
lfingers 7.12502
lthumb 8.60195 56.4879
rfemur -12.1589 5.63397 21.4347
rtibia 20.395
rfoot -8.83567 -9.5295
rtoes 2.94716
lfemur -12.9662 -3.47499 -21.5974
ltibia 20.2208
lfoot -10.1634 6.36294
ltoes 0.161218
92
root 0.904503 17.8673 -15.8664 6.32104 -3.74977 0.463456
lowerback 6.13254 0.0846258 -1.68491
upperback -0.0813394 0.0696394 2.18133
thorax -3.53012 0.0829872 3.19857
lowerneck -15.7865 -3.41004 -9.75369
upperneck 28.8111 -3.17699 3.61459
head 12.3915 -2.02249 2.55704
rclavicle 4.17448e-015 1.59028e-015
rhumerus -33.4477 -10.6613 -77.9069
rradius 33.298
rwrist 3.13881
rhand -11.8825 16.3183
rfingers 7.12502
rthumb 14.1702 -13.1784
lclavicle 4.17448e-015 1.59028e-015
lhumerus -32.9054 9.6553 85.5863
lradius 31.5028
lwrist -2.33566
lhand -17.9617 26.1339
lfingers 7.12502
lthumb 8.30731 55.9505
rfemur -12.1849 5.72308 21.4717
rtibia 20.4359
rfoot -8.80679 -9.56659
rtoes 3.3752
lfemur -12.9621 -3.47168 -21.5589
ltibia 20.1873
lfoot -10.1527 6.39615
ltoes 0.250024
93
root 0.903647 17.8691 -15.8582 6.30233 -3.76867 0.5414
lowerback 6.05017 0.0798032 -1.77435
upperback -0.0341436 0.0569671 2.17958
thorax -3.43422 0.0763272 3.24773
lowerneck -15.8102 -3.51255 -9.98299
upperneck 28.9076 -3.32218 3.82508
head 12.4567 -2.08696 2.6557
rclavicle 9.0447e-015 -1.35174e-014
rhumerus -33.4135 -10.7217 -77.8469
rradius 33.2274
rwrist 3.1181
rhand -11.8891 15.3702
rfingers 7.12502
rthumb 14.1639 -14.127
lclavicle 9.0447e-015 -1.35174e-014
lhumerus -32.8248 9.6676 85.6199
lradius 31.1701
lwrist -1.70257
lhand -18.9732 22.8767
lfingers 7.12502
lthumb 7.331 52.7297
rfemur -12.1358 5.75391 21.3813
rtibia 20.4705
rfoot -8.93086 -9.60199
rtoes 3.71494
lfemur -12.8698 -3.49422 -21.6526
ltibia 20.1275
lfoot -10.1565 6.4087
ltoes 0.370997
94
root 0.902936 17.8672 -15.8538 6.27229 -3.78881 0.637383
lowerback 6.03751 0.0722917 -1.89001
upperback -0.0261349 0.0383039 2.16399
thorax -3.41765 0.0685485 3.29851
lowerneck -15.8042 -3.60903 -10.1467
upperneck 29.0576 -3.4706 3.99473
head 12.5361 -2.15247 2.72823
rclavicle 1.88845e-015 1.03368e-014
rhumerus -33.4913 -10.6984 -77.8302
rradius 33.2345
rwrist 3.02092
rhand -12.0254 15.1053
rfingers 7.12502
rthumb 14.0325 -14.401
lclavicle 1.88845e-015 1.03368e-014
lhumerus -32.8193 9.72056 85.5698
lradius 31.7294
lwrist -3.12031
lhand -16.1967 26.4485
lfingers 7.12502
lthumb 10.0104 56.1905
rfemur -12.1578 5.76683 21.2837
rtibia 20.5256
rfoot -8.94984 -9.69637
rtoes 2.97394
lfemur -12.7755 -3.51971 -21.7587
ltibia 20.0351
lfoot -10.133 6.42599
ltoes 0.385683
95
root 0.901915 17.8656 -15.8517 6.28127 -3.7184 0.717717
lowerback 6.04952 0.0607454 -1.96999
upperback 0.0151127 0.0161533 2.14392
thorax -3.38015 0.057634 3.32466
lowerneck -15.8136 -3.52352 -10.0017
upperneck 28.9027 -3.33075 3.82154
head 12.4567 -2.09308 2.65605
rclavicle 3.8763e-015 1.03368e-014
rhumerus -33.4446 -10.6862 -77.848
rradius 33.2291
rwrist 2.8734
rhand -12.1024 15.3975
rfingers 7.12502
rthumb 13.9583 -14.1139
lclavicle 3.8763e-015 1.03368e-014
lhumerus -32.668 9.82566 85.4959
lradius 31.9557
lwrist -4.30448
lhand -14.2149 27.4956
lfingers 7.12502
lthumb 11.9219 57.1361
rfemur -12.1906 5.78306 21.2147
rtibia 20.5617
rfoot -8.92567 -9.8344
rtoes 2.24149
lfemur -12.7604 -3.55281 -21.8332
ltibia 19.9671
lfoot -10.0965 6.34938
ltoes 0.883719
96
root 0.902376 17.8683 -15.849 6.33426 -3.54927 0.801558
lowerback 5.97 0.0191255 -2.00343
upperback 0.0763077 -0.0423901 2.10925
thorax -3.26786 0.0262903 3.31174
lowerneck -15.8276 -3.48005 -9.89737
upperneck 28.7216 -3.25701 3.7054
head 12.3759 -2.05949 2.6022
rclavicle -9.93923e-017 -9.54166e-015
rhumerus -33.2719 -10.8314 -77.8526
rradius 33.1607
rwrist 2.93449
rhand -11.9537 15.7672
rfingers 7.12502
rthumb 14.1016 -13.7343
lclavicle -9.93923e-017 -9.54166e-015
lhumerus -32.5234 9.54467 85.6304
lradius 31.8991
lwrist -3.4129
lhand -15.4877 26.2257
lfingers 7.12502
lthumb 10.6943 55.9335
rfemur -12.1844 5.66284 21.126
rtibia 20.577
rfoot -9.04677 -9.86061
rtoes 2.77019
lfemur -12.8158 -3.55215 -21.9218
ltibia 19.9419
lfoot -10.0388 6.15344
ltoes 1.23612
97
root 0.904995 17.8693 -15.8424 6.31236 -3.51155 0.724688
lowerback 5.97166 0.00348758 -1.85185
upperback 0.0714769 -0.0529043 2.10476
thorax -3.27306 0.0187466 3.22227
lowerneck -15.8851 -3.61584 -10.078
upperneck 28.927 -3.47346 3.94867
head 12.4976 -2.14809 2.69551
rclavicle -1.0635e-014 -5.56597e-015
rhumerus -33.3377 -10.9099 -77.8372
rradius 33.1947
rwrist 2.99608
rhand -11.7992 16.0564
rfingers 7.12502
rthumb 14.2505 -13.4347
lclavicle -1.0635e-014 -5.56597e-015
lhumerus -32.5315 9.24654 85.7323
lradius 31.7766
lwrist -2.40171
lhand -16.8937 25.0197
lfingers 7.12502
lthumb 9.33792 54.7928
rfemur -12.0875 5.60047 21.1979
rtibia 20.5807
rfoot -9.16001 -9.79642
rtoes 3.11285
lfemur -12.7447 -3.47262 -21.8634
ltibia 19.9319
lfoot -9.9759 6.02695
ltoes 1.21837
98
root 0.908852 17.8679 -15.8365 6.25571 -3.64 0.62968
lowerback 6.14356 0.0443156 -1.70952
upperback -0.0131224 0.0107693 2.10599
thorax -3.46153 0.0517508 3.13909
lowerneck -15.8727 -3.72553 -10.2244
upperneck 29.1667 -3.64795 4.11399
head 12.6147 -2.22575 2.76089
rclavicle 2.18663e-015 1.59028e-014
rhumerus -33.6181 -10.8829 -77.8084
rradius 33.324
rwrist 2.98515
rhand -11.6772 16.3391
rfingers 7.12502
rthumb 14.3681 -13.1437
lclavicle 2.18663e-015 1.59028e-014
lhumerus -32.6464 9.17326 85.7092
lradius 31.9653
lwrist -2.90879
lhand -15.8324 26.4413
lfingers 7.12502
lthumb 10.3619 56.166
rfemur -11.9993 5.66855 21.2821
rtibia 20.5712
rfoot -9.16569 -9.72753
rtoes 3.22928
lfemur -12.6258 -3.51426 -21.7897
ltibia 19.9307
lfoot -9.99498 6.22854
ltoes 0.934889
99
root 0.909227 17.8646 -15.8337 6.26801 -3.63365 0.601138
lowerback 6.25245 0.0245612 -1.68999
upperback -0.0944632 -0.0136999 2.12173
thorax -3.60537 0.0422924 3.14788
lowerneck -15.7439 -3.69108 -10.2307
upperneck 29.2075 -3.60912 4.10291
head 12.6009 -2.21313 2.76556
rclavicle 2.38542e-015 1.11319e-014
rhumerus -33.8 -10.6953 -77.8442
rradius 33.4548
rwrist 2.82257
rhand -11.7157 16.263
rfingers 7.12502
rthumb 14.3309 -13.2224
lclavicle 2.38542e-015 1.11319e-014
lhumerus -32.7522 9.33822 85.5599
lradius 32.2113
lwrist -4.18335
lhand -13.6935 28.0206
lfingers 7.12502
lthumb 12.4246 57.6313
rfemur -11.9845 5.70267 21.319
rtibia 20.5484
rfoot -9.12181 -9.77616
rtoes 3.88844
lfemur -12.6727 -3.5286 -21.7526
ltibia 19.9666
lfoot -10.0625 6.31358
ltoes 0.373098
100
root 0.906771 17.8643 -15.8305 6.36189 -3.57736 0.62613
lowerback 6.11041 -0.00854494 -1.78501
upperback -0.0791706 -0.0626216 2.15218
thorax -3.50636 0.0183533 3.23667
lowerneck -15.6846 -3.64987 -10.2017
upperneck 29.1273 -3.5461 4.04849
head 12.5486 -2.1879 2.74859
rclavicle -1.95803e-014 -1.43125e-014
rhumerus -33.6655 -10.6269 -77.8804
rradius 33.4022
rwrist 2.76327
rhand -11.7819 15.9305
rfingers 7.12502
rthumb 14.2672 -13.5594
lclavicle -1.95803e-014 -1.43125e-014
lhumerus -32.7104 9.53967 85.4822
lradius 32.2983
lwrist -4.91428
lhand -12.8092 28.2639
lfingers 7.12502
lthumb 13.2771 57.821
rfemur -12.1118 5.75359 21.2937
rtibia 20.5914
rfoot -9.06508 -9.8435
rtoes 4.48258
lfemur -12.8035 -3.48058 -21.7637
ltibia 19.9527
lfoot -10.0777 6.23328
ltoes -0.130058
101
root 0.902522 17.8681 -15.8367 6.51811 -3.40407 0.665741
lowerback 5.9472 -0.0646641 -1.87706
upperback -0.0168305 -0.142076 2.17833
thorax -3.34435 -0.0225271 3.32123
lowerneck -15.6006 -3.52005 -10.0574
upperneck 28.7775 -3.34673 3.86944
head 12.3655 -2.09946 2.68109
rclavicle -1.98785e-016 -6.36111e-015
rhumerus -33.4008 -10.6709 -77.9281
rradius 33.3589
rwrist 2.72771
rhand -11.7984 15.7866
rfingers 7.12502
rthumb 14.2512 -13.7044
lclavicle -1.98785e-016 -6.36111e-015
lhumerus -32.4796 9.56855 85.5244
lradius 32.363
lwrist -5.01255
lhand -12.6394 28.5897
lfingers 7.12502
lthumb 13.4408 58.136
rfemur -12.3371 5.71244 21.2618
rtibia 20.6449
rfoot -9.02534 -9.95188
rtoes 4.4134
lfemur -12.9962 -3.44422 -21.7707
ltibia 19.9196
lfoot -10.06 6.00499
ltoes 0.188408
102
root 0.897928 17.871 -15.8482 6.70787 -3.07793 0.813264
lowerback 5.96409 -0.130952 -1.99094
upperback -0.0118164 -0.240796 2.111
thorax -3.34139 -0.0704029 3.32432
lowerneck -15.7975 -3.45612 -9.77982
upperneck 28.6392 -3.25491 3.69188
head 12.3326 -2.04583 2.57642
rclavicle -4.96962e-015 6.36111e-015
rhumerus -33.2624 -10.8829 -77.9918
rradius 33.4097
rwrist 2.72984
rhand -11.7754 15.8159
rfingers 7.12502
rthumb 14.2734 -13.6736
lclavicle -4.96962e-015 6.36111e-015
lhumerus -32.1725 9.41918 85.5371
lradius 32.363
lwrist -5.0239
lhand -12.5355 29.0288
lfingers 7.12502
lthumb 13.5409 58.5685
rfemur -12.5814 5.61049 21.1275
rtibia 20.6758
rfoot -8.97012 -10.2014
rtoes 4.13356
lfemur -13.2572 -3.47736 -21.8707
ltibia 19.9001
lfoot -10.0874 5.64831
ltoes 0.524966
103
root 0.896799 17.8729 -15.8497 6.82359 -2.91559 0.821074
lowerback 5.98603 -0.149584 -1.96221
upperback -0.0380863 -0.264578 2.0843
thorax -3.3794 -0.082008 3.2828
lowerneck -16.119 -3.61122 -9.818
upperneck 28.9198 -3.48973 3.8615
head 12.5356 -2.13504 2.6132
rclavicle -1.09332e-014 -1.27222e-014
rhumerus -33.218 -11.0471 -78.0038
rradius 33.4009
rwrist 2.74687
rhand -11.7518 15.9324
rfingers 7.12502
rthumb 14.2962 -13.5554
lclavicle -1.09332e-014 -1.27222e-014
lhumerus -32.0442 9.25542 85.5518
lradius 32.3736
lwrist -5.08051
lhand -12.5108 29.3014
lfingers 7.12502
lthumb 13.5647 58.8396
rfemur -12.705 5.53122 21.1209
rtibia 20.6674
rfoot -8.98309 -10.2631
rtoes 3.83018
lfemur -13.4058 -3.49509 -21.8511
ltibia 19.9418
lfoot -10.135 5.46599
ltoes 0.547062
